<?xml version="1.0" encoding="utf-8"?>
<!-- Generator: Adobe Illustrator 25.0.0, SVG Export Plug-In . SVG Version: 6.00 Build 0)  -->
<svg version="1.1" id="Layer_1" xmlns="http://www.w3.org/2000/svg" xmlns:xlink="http://www.w3.org/1999/xlink" x="0px" y="0px"
	 viewBox="0 0 361.8 47.5" style="enable-background:new 0 0 361.8 47.5;" xml:space="preserve">
<g>
	<g>
		<path d="M0,36.2v-35h12.9c2.8,0,5.1,0.5,6.9,1.4s3.2,2.2,4.1,3.8s1.4,3.5,1.4,5.5c0,1.9-0.4,3.7-1.3,5.3c-0.9,1.6-2.2,2.9-4.1,3.9
			c-1.8,1-4.2,1.5-7.1,1.5H6.4v13.5L0,36.2L0,36.2z M6.4,17.5h6.2c2.2,0,3.8-0.5,4.8-1.5c1-1,1.5-2.3,1.5-4c0-1.7-0.5-3.1-1.5-4.1
			c-1-1-2.6-1.5-4.8-1.5H6.4V17.5z"/>
		<path d="M30.2,36.2V11.4h5.7l0.6,4.6c0.9-1.6,2.1-2.9,3.7-3.8c1.5-0.9,3.4-1.4,5.5-1.4v6.8h-1.8c-1.4,0-2.7,0.2-3.8,0.6
			s-2,1.2-2.6,2.2c-0.6,1.1-0.9,2.5-0.9,4.5v11.3H30.2z"/>
		<path d="M61.5,36.8c-2.4,0-4.6-0.5-6.5-1.7c-1.9-1.1-3.4-2.6-4.5-4.6c-1.1-2-1.7-4.2-1.7-6.8c0-2.6,0.6-4.8,1.7-6.8
			c1.1-1.9,2.7-3.5,4.6-4.6c1.9-1.1,4.1-1.6,6.5-1.6c2.4,0,4.5,0.6,6.4,1.6c1.9,1.1,3.4,2.6,4.6,4.6c1.1,2,1.7,4.2,1.7,6.8
			c0,2.6-0.6,4.8-1.7,6.8s-2.6,3.5-4.6,4.6C66,36.3,63.8,36.8,61.5,36.8z M61.5,31.3c1.7,0,3.1-0.6,4.4-1.9c1.2-1.2,1.8-3.1,1.8-5.6
			c0-2.5-0.6-4.3-1.8-5.6c-1.2-1.2-2.7-1.9-4.3-1.9c-1.7,0-3.2,0.6-4.4,1.9c-1.2,1.2-1.8,3.1-1.8,5.6s0.6,4.3,1.8,5.6
			C58.3,30.7,59.8,31.3,61.5,31.3z"/>
		<path d="M89.9,36.2c-2.6,0-4.7-0.6-6.2-1.9s-2.3-3.5-2.3-6.8V16.8h-4.2v-5.4h4.2l0.8-6.7h5.7v6.7h6.7v5.4h-6.7v10.9
			c0,1.2,0.3,2,0.8,2.5c0.5,0.5,1.4,0.7,2.7,0.7h3.1v5.5H89.9z"/>
		<path d="M111.2,36.8c-2.4,0-4.6-0.5-6.5-1.7c-1.9-1.1-3.4-2.6-4.6-4.6c-1.1-2-1.7-4.2-1.7-6.8c0-2.6,0.6-4.8,1.7-6.8
			c1.1-1.9,2.7-3.5,4.6-4.6s4.1-1.6,6.5-1.6c2.4,0,4.5,0.6,6.4,1.6c1.9,1.1,3.4,2.6,4.6,4.6c1.1,2,1.7,4.2,1.7,6.8
			c0,2.6-0.6,4.8-1.7,6.8c-1.1,1.9-2.6,3.5-4.6,4.6C115.7,36.3,113.5,36.8,111.2,36.8z M111.2,31.3c1.7,0,3.1-0.6,4.3-1.9
			c1.2-1.2,1.8-3.1,1.8-5.6c0-2.5-0.6-4.3-1.8-5.6c-1.2-1.2-2.7-1.9-4.3-1.9c-1.7,0-3.2,0.6-4.4,1.9c-1.2,1.2-1.8,3.1-1.8,5.6
			s0.6,4.3,1.8,5.6C108,30.7,109.5,31.3,111.2,31.3z"/>
		<path d="M129.6,36.2V11.4h5.6l0.5,4.2c0.8-1.5,1.9-2.6,3.3-3.5c1.4-0.9,3.2-1.3,5.1-1.3c3.1,0,5.4,1,7.1,2.9s2.6,4.8,2.6,8.5v14
			h-6.4V22.8c0-2.1-0.4-3.8-1.3-4.9c-0.9-1.1-2.2-1.7-4.1-1.7c-1.8,0-3.3,0.6-4.4,1.9s-1.7,3-1.7,5.3v12.8H129.6z"/>
		<path d="M158.4,36.2l10.9-17.7L158.2,1.2h7.4l7.9,12.2l7.2-12.2h7.2l-10.9,17.6l11.2,17.4h-7.4l-7.9-12.4l-7.2,12.4H158.4z"/>
		<path d="M205.2,36.2v-35h4.2v15.5h18.1V1.2h4.2v35h-4.2V20.1h-18.1v16.1H205.2z"/>
		<path d="M250.1,36.8c-2.4,0-4.5-0.5-6.3-1.6c-1.8-1.1-3.3-2.6-4.3-4.5c-1.1-1.9-1.6-4.2-1.6-6.9c0-2.6,0.5-4.9,1.6-6.8
			s2.5-3.5,4.3-4.6c1.9-1.1,4-1.6,6.4-1.6c2.4,0,4.5,0.5,6.2,1.6c1.8,1.1,3.1,2.5,4,4.3c0.9,1.8,1.4,3.7,1.4,5.7c0,0.4,0,0.7,0,1.1
			c0,0.4,0,0.8,0,1.2H242c0.1,1.9,0.5,3.5,1.3,4.7s1.8,2.2,2.9,2.8c1.2,0.6,2.4,1,3.8,1c1.7,0,3.2-0.4,4.4-1.2
			c1.2-0.8,2-1.9,2.6-3.2h4.1c-0.7,2.3-1.9,4.2-3.8,5.7C255.4,36.1,253,36.8,250.1,36.8z M250.1,14.4c-2,0-3.8,0.6-5.3,1.8
			c-1.6,1.2-2.4,3-2.7,5.3h15.6c-0.1-2.2-0.9-4-2.3-5.2C254,15,252.2,14.4,250.1,14.4z"/>
		<path d="M267.4,36.2v-36h4.2v36H267.4z"/>
		<path d="M278.5,47.2V11.4h3.8l0.4,4.1c0.8-1.2,1.9-2.3,3.4-3.2s3.4-1.4,5.7-1.4c2.5,0,4.6,0.6,6.5,1.7c1.8,1.1,3.3,2.7,4.3,4.6
			s1.5,4.2,1.5,6.7s-0.5,4.7-1.5,6.7s-2.5,3.5-4.3,4.6c-1.9,1.1-4,1.7-6.5,1.7c-2,0-3.8-0.4-5.4-1.2c-1.6-0.8-2.8-2-3.6-3.5v15.1
			L278.5,47.2L278.5,47.2z M291.3,33.2c1.7,0,3.1-0.4,4.4-1.2c1.3-0.8,2.3-1.9,3-3.3s1.1-3,1.1-4.9c0-1.9-0.4-3.5-1.1-4.9
			s-1.7-2.5-3-3.3c-1.3-0.8-2.7-1.2-4.4-1.2c-1.7,0-3.1,0.4-4.4,1.2s-2.3,1.9-3,3.3s-1.1,3-1.1,4.9c0,1.9,0.4,3.5,1.1,4.9
			s1.7,2.5,3,3.3C288.2,32.8,289.6,33.2,291.3,33.2z"/>
	</g>
	<path d="M358,27.6c2.1,0,3.8-1.7,3.8-3.8s-1.7-3.8-3.8-3.8s-3.8,1.7-3.8,3.8S355.9,27.6,358,27.6z"/>
	<path d="M327.8,27.6c2.1,0,3.8-1.7,3.8-3.8s-1.7-3.8-3.8-3.8s-3.8,1.7-3.8,3.8S325.7,27.6,327.8,27.6z"/>
	<path d="M342.9,42.7c2.1,0,3.8-1.7,3.8-3.8c0-2.1-1.7-3.8-3.8-3.8s-3.8,1.7-3.8,3.8C339.1,41,340.8,42.7,342.9,42.7z"/>
	<path d="M339.2,17.4l-7.6-7.6h0L331,9.2l-2.7,2.7l7.6,7.6l0,0l0.6,0.6L339.2,17.4z M346.6,17.5l8.3-8.3l2.7,2.7l-8.3,8.3
		L346.6,17.5z M339.2,30.2l-2.7-2.7l-7.6,7.6l-0.6,0.6l2.7,2.7l7.6-7.6L339.2,30.2z M357.6,35.7l-7.5-7.6l-0.7-0.7l-2.7,2.7l7.5,7.6
		l0.7,0.7L357.6,35.7z"/>
	<path d="M342.9,12.5c2.1,0,3.8-1.7,3.8-3.8S345,5,342.9,5s-3.8,1.7-3.8,3.8S340.8,12.5,342.9,12.5z"/>
</g>
</svg>
